<?xml version="1.0" encoding="UTF-8"?>
<svg id="Layer_1" data-name="Layer 1" xmlns="http://www.w3.org/2000/svg" viewBox="0 0 632.12 632.12">
  <defs>
    <style>
      .cls-1 {
        fill: #fff;
        stroke-width: 0px;
      }
    </style>
  </defs>
  <path class="cls-1" d="m499.58,394.39v149.34l-33.58-18.74v-117.83c0-.53-.3-1.01-.78-1.25l-149.16-73.03-149.71,73.29c-.13.06-.23.23-.23.37v118.44l-33.58,18.74v-149.34c0-4.19,3.08-9.13,6.85-10.98l174.77-85.53c1.04-.51,2.75-.51,3.79,0l174.77,85.53c3.77,1.84,6.85,6.78,6.85,10.98Zm-265.95,180.73l33.58,18.74v-202.08l-33.58,16.44v166.9Zm130.61,18.74l33.58-18.74v-166.9l-33.58-16.44v202.08ZM166.12,220.6v-116.94l-33.58,16.44v113.26c0,4.19,3.08,9.13,6.85,10.98l105,51.38,36.71-17.97-114.2-55.91c-.48-.23-.78-.72-.78-1.25Zm299.88-116.94v117.55c0,.14-.1.31-.23.37l-114.75,56.18,36.71,17.97,105-51.38c3.77-1.84,6.85-6.78,6.85-10.98v-113.27l-33.58-16.44Zm-73.18-32.59v109.79c-.07.12-.15.25-.22.37l-78.67,39.82c-1.3.66-2.82.66-4.12,0l-78.67-39.82c-.07-.12-.15-.25-.22-.37v-109.45l-32.48,16.44v105.17c0,4.19,2.98,9.13,6.62,10.98l102.95,52.09c2.12,1.07,5.59,1.07,7.72,0l102.95-52.09c3.64-1.84,6.63-6.78,6.63-10.98v-105.5l-32.48-16.44Zm-60.41-32.81v104.23c-.08.12-.16.25-.23.37l-14.33,7.02c-1.17.57-3.09.57-4.26,0l-14.33-7.02c-.07-.12-.16-.25-.23-.37V38.59l-33.58,16.44v105.09c0,1.18.87,2.57,1.92,3.08l44.36,21.71c2.19,1.07,5.78,1.07,7.98,0l44.36-21.71c1.06-.52,1.92-1.91,1.92-3.08V54.7l-33.58-16.44Z"/>
</svg>