<?xml version="1.0" encoding="UTF-8" standalone="no"?>
<svg
   id="Layer_1"
   data-name="Layer 1"
   viewBox="0 0 2660.2343 555.61"
   version="1.1"
   sodipodi:docname="Full Lockup - White-enlarged.svg"
   width="2660.2344"
   height="555.60999"
   inkscape:version="1.4 (e7c3feb100, 2024-10-09)"
   xmlns:inkscape="http://www.inkscape.org/namespaces/inkscape"
   xmlns:sodipodi="http://sodipodi.sourceforge.net/DTD/sodipodi-0.dtd"
   xmlns="http://www.w3.org/2000/svg"
   xmlns:svg="http://www.w3.org/2000/svg">
  <sodipodi:namedview
     id="namedview10"
     pagecolor="#ffffff"
     bordercolor="#000000"
     borderopacity="0.25"
     inkscape:showpageshadow="2"
     inkscape:pageopacity="0.0"
     inkscape:pagecheckerboard="0"
     inkscape:deskcolor="#d1d1d1"
     inkscape:zoom="0.2468049"
     inkscape:cx="526.73184"
     inkscape:cy="-480.13633"
     inkscape:window-width="2560"
     inkscape:window-height="1404"
     inkscape:window-x="0"
     inkscape:window-y="0"
     inkscape:window-maximized="1"
     inkscape:current-layer="Layer_1" />
  <defs
     id="defs1">
    <style
       id="style1">
      .cls-1 {
        fill: #fff;
        stroke-width: 0px;
      }
    </style>
  </defs>
  <g
     id="g9"
     style="fill:#ffffff;fill-opacity:1"
     transform="matrix(1.977658,0,0,1.977658,-577.80476,-358.14059)">
    <path
       class="cls-1"
       d="m 536.73,304.4 c 0,-12.59 2.44,-24.48 7.32,-35.66 4.88,-11.18 11.48,-20.93 19.83,-29.27 8.34,-8.34 18.09,-14.9 29.27,-19.69 11.18,-4.79 23.15,-7.19 35.92,-7.19 11.35,0 21.95,1.64 31.8,4.92 9.85,3.29 18.63,7.9 26.34,13.84 7.72,5.95 14.24,13.13 19.56,21.55 5.32,8.43 9.05,17.79 11.18,28.07 h -39.12 c -3.55,-10.29 -9.71,-18.45 -18.49,-24.48 -8.78,-6.03 -19.21,-9.05 -31.27,-9.05 -7.63,0 -14.81,1.51 -21.55,4.52 -6.74,3.02 -12.64,7.1 -17.7,12.24 -5.06,5.15 -9.05,11.18 -11.97,18.09 -2.93,6.92 -4.39,14.28 -4.39,22.09 0,7.81 1.46,15.17 4.39,22.09 2.93,6.92 6.92,12.95 11.97,18.09 5.06,5.15 10.95,9.23 17.7,12.24 6.74,3.02 13.92,4.52 21.55,4.52 12.06,0 22.49,-3.01 31.27,-9.05 8.78,-6.03 14.94,-14.19 18.49,-24.48 h 39.12 c -2.13,10.29 -5.85,19.6 -11.18,27.94 -5.32,8.34 -11.84,15.53 -19.56,21.55 -7.72,6.03 -16.5,10.69 -26.34,13.97 -9.84,3.28 -20.45,4.92 -31.8,4.92 -12.77,0 -24.75,-2.4 -35.92,-7.18 -11.18,-4.79 -20.93,-11.35 -29.27,-19.69 -8.34,-8.34 -14.95,-18.05 -19.83,-29.14 -4.88,-11.08 -7.32,-23.02 -7.32,-35.79 z"
       id="path1"
       style="fill:#ffffff;fill-opacity:1" />
    <path
       class="cls-1"
       d="m 732.58,254.64 h 33.53 v 26.88 c 5.68,-9.93 13.08,-17.34 22.22,-22.22 9.13,-4.88 18.93,-7.32 29.4,-7.32 v 35.39 c -6.03,-0.17 -12.07,0.67 -18.09,2.53 -6.03,1.86 -11.49,4.57 -16.37,8.12 -4.88,3.55 -8.87,8.03 -11.97,13.44 -3.11,5.41 -4.84,11.67 -5.19,18.76 v 63.33 h -33.53 z"
       id="path2"
       style="fill:#ffffff;fill-opacity:1" />
    <path
       class="cls-1"
       d="m 868.29,447.03 20.49,-55.08 -52.69,-137.31 h 35.66 l 33.53,92.07 34.86,-92.07 h 35.92 l -75.04,192.39 z"
       id="path3"
       style="fill:#ffffff;fill-opacity:1" />
    <path
       class="cls-1"
       d="m 977.92,324.09 c 0,-10.29 1.86,-19.83 5.59,-28.61 3.73,-8.78 8.82,-16.41 15.3,-22.88 6.47,-6.47 14.14,-11.53 23.02,-15.17 8.87,-3.63 18.45,-5.46 28.74,-5.46 10.29,0 19.87,1.82 28.74,5.46 8.87,3.64 16.58,8.69 23.15,15.17 6.56,6.48 11.71,14.1 15.43,22.88 3.72,8.78 5.59,18.32 5.59,28.61 0,10.29 -1.86,19.56 -5.59,28.34 -3.73,8.78 -8.87,16.41 -15.43,22.88 -6.57,6.48 -14.28,11.53 -23.15,15.17 -8.87,3.63 -18.45,5.46 -28.74,5.46 -10.29,0 -19.87,-1.82 -28.74,-5.46 -8.87,-3.63 -16.59,-8.69 -23.15,-15.17 -6.57,-6.47 -11.67,-14.1 -15.3,-22.88 -3.64,-8.78 -5.46,-18.23 -5.46,-28.34 z m 35.13,0 c 0,5.15 0.89,10.07 2.66,14.77 1.77,4.7 4.3,8.83 7.58,12.37 3.28,3.55 7.27,6.39 11.97,8.52 4.7,2.13 9.89,3.19 15.57,3.19 5.68,0 10.82,-1.06 15.43,-3.19 4.61,-2.13 8.56,-4.96 11.84,-8.52 3.28,-3.55 5.81,-7.67 7.58,-12.37 1.77,-4.7 2.66,-9.62 2.66,-14.77 0,-5.15 -0.89,-10.11 -2.66,-14.9 -1.78,-4.79 -4.3,-8.96 -7.58,-12.51 -3.28,-3.55 -7.23,-6.39 -11.84,-8.51 -4.62,-2.13 -9.76,-3.19 -15.43,-3.19 -5.67,0 -10.87,1.06 -15.57,3.19 -4.7,2.13 -8.69,4.97 -11.97,8.51 -3.29,3.55 -5.81,7.72 -7.58,12.51 -1.78,4.79 -2.66,9.76 -2.66,14.9 z"
       id="path4"
       style="fill:#ffffff;fill-opacity:1" />
    <path
       class="cls-1"
       d="m 1138.65,201.95 h 33.53 v 191.59 h -33.53 z"
       id="path5"
       style="fill:#ffffff;fill-opacity:1" />
    <path
       class="cls-1"
       d="m 1220.34,447.03 20.49,-55.08 -52.69,-137.31 h 35.66 l 33.53,92.07 34.86,-92.07 h 35.92 l -75.04,192.39 z"
       id="path6"
       style="fill:#ffffff;fill-opacity:1" />
    <path
       class="cls-1"
       d="m 1399.69,213.66 v 40.98 h 34.59 v 27.94 h -34.59 v 62.8 c 0,7.81 1.77,13.04 5.32,15.7 3.55,2.66 8.42,3.99 14.64,3.99 2.3,0 4.66,-0.13 7.05,-0.4 2.39,-0.27 4.92,-0.57 7.58,-0.93 v 30.6 c -8.16,1.06 -15.7,1.6 -22.62,1.6 -6.92,0 -13.48,-0.71 -19.16,-2.13 -5.68,-1.42 -10.47,-3.86 -14.37,-7.32 -3.9,-3.46 -6.88,-7.98 -8.92,-13.57 -2.04,-5.59 -3.06,-12.46 -3.06,-20.62 v -69.72 h -23.68 v -27.94 h 23.68 v -40.98 h 33.53 z"
       id="path7"
       style="fill:#ffffff;fill-opacity:1" />
    <path
       class="cls-1"
       d="m 1447.05,216.05 c 0,-5.5 2,-10.2 5.99,-14.1 3.99,-3.9 8.82,-5.85 14.5,-5.85 5.68,0 10.51,1.95 14.5,5.85 3.99,3.9 5.99,8.61 5.99,14.1 0,5.49 -2,10.42 -5.99,14.24 -3.99,3.82 -8.83,5.72 -14.5,5.72 -5.67,0 -10.51,-1.9 -14.5,-5.72 -3.99,-3.81 -5.99,-8.56 -5.99,-14.24 z m 3.73,38.58 h 33.53 v 138.91 h -33.53 z"
       id="path8"
       style="fill:#ffffff;fill-opacity:1" />
    <path
       class="cls-1"
       d="m 1598.47,393.54 -29.54,-42.84 -29.54,42.84 h -39.12 l 48.96,-69.72 -48.43,-69.19 h 38.85 l 29.27,42.31 29.27,-42.31 h 39.12 l -48.7,69.19 48.7,69.72 h -38.85 z"
       id="path9"
       style="fill:#ffffff;fill-opacity:1" />
  </g>
  <path
     class="cls-1"
     d="M 367.04,356.14 V 505.48 L 333.46,486.74 V 368.91 c 0,-0.53 -0.3,-1.01 -0.78,-1.25 L 183.52,294.63 33.81,367.92 c -0.13,0.06 -0.23,0.23 -0.23,0.37 V 486.73 L 0,505.47 V 356.13 C 0,351.94 3.08,347 6.85,345.15 l 174.77,-85.53 c 1.04,-0.51 2.75,-0.51 3.79,0 l 174.77,85.53 c 3.77,1.84 6.85,6.78 6.85,10.98 z m -265.95,180.73 33.58,18.74 V 353.53 l -33.58,16.44 z m 130.61,18.74 33.58,-18.74 V 369.97 L 231.7,353.53 Z M 33.58,182.34 V 65.4 L 0,81.84 V 195.1 c 0,4.19 3.08,9.13 6.85,10.98 l 105,51.38 36.71,-17.97 -114.2,-55.91 c -0.48,-0.23 -0.78,-0.72 -0.78,-1.25 z M 333.46,65.4 v 117.55 c 0,0.14 -0.1,0.31 -0.23,0.37 l -114.75,56.18 36.71,17.97 105,-51.38 c 3.77,-1.84 6.85,-6.78 6.85,-10.98 V 81.84 Z M 266.89,32.81 V 142.6 c -0.08,0.12 -0.16,0.25 -0.23,0.37 l -81.35,39.82 c -1.34,0.66 -2.91,0.66 -4.26,0 L 99.71,142.97 c -0.08,-0.12 -0.16,-0.25 -0.23,-0.37 V 33.15 L 65.9,49.59 v 105.17 c 0,4.19 3.08,9.13 6.85,10.98 l 106.45,52.09 c 2.19,1.07 5.78,1.07 7.98,0 l 106.44,-52.09 c 3.77,-1.84 6.85,-6.78 6.85,-10.98 V 49.26 L 266.89,32.82 Z M 199.88,0 v 104.23 c -0.08,0.12 -0.16,0.25 -0.23,0.37 l -14.33,7.02 c -1.17,0.57 -3.09,0.57 -4.26,0 l -14.33,-7.02 c -0.07,-0.12 -0.16,-0.25 -0.23,-0.37 V 0.34 l -33.58,16.44 v 105.09 c 0,1.18 0.87,2.57 1.92,3.08 l 44.36,21.71 c 2.19,1.07 5.78,1.07 7.98,0 l 44.36,-21.71 c 1.06,-0.52 1.92,-1.91 1.92,-3.08 V 16.44 Z"
     id="path10"
     style="fill:#ffffff;fill-opacity:1" />
</svg>
